<svg width="47" height="30" viewBox="0 0 47 30" fill="none" xmlns="http://www.w3.org/2000/svg">
<g id="LOGO">
<path id="Rectangle 16" d="M0 5.95311C0 2.6653 2.6653 0 5.95311 0H18.8397C23.5525 0 24.5185 6.66117 20 8L13.8526 10.0491C12.9833 10.3389 12.2561 10.9472 11.8173 11.7517C10.6594 13.8745 11.8658 16.5143 14.2288 17.028L21 18.5L32 21L44.3495 23.4699C45.8907 23.7781 47 25.1313 47 26.7029C47 28.5239 45.5239 30 43.7029 30H10C4.47715 30 0 25.5228 0 20V16.5V7.5V5.95311Z" fill="#FE85D5"/>
<circle id="Ellipse 6" cx="6.75" cy="4.75" r="1.75" fill="#2B152B"/>
</g>
</svg>
